<?xml version="1.0" encoding="UTF-8"?>
<svg id="Layer_2" data-name="Layer 2" xmlns="http://www.w3.org/2000/svg" width="34.75mm" height="14.47mm" xmlns:xlink="http://www.w3.org/1999/xlink" viewBox="0 0 98.51 41.01">
  <defs>
    <style>
      .cls-1 {
        fill: url(#linear-gradient-2);
      }

      .cls-2 {
        clip-path: url(#clippath-20);
      }

      .cls-3 {
        clip-path: url(#clippath-11);
      }

      .cls-4 {
        clip-path: url(#clippath-16);
      }

      .cls-5 {
        fill: url(#radial-gradient-16);
      }

      .cls-5, .cls-6, .cls-7, .cls-8, .cls-9, .cls-10, .cls-11, .cls-12, .cls-13, .cls-14, .cls-15, .cls-16, .cls-17, .cls-18, .cls-19, .cls-20, .cls-21, .cls-22, .cls-23, .cls-24, .cls-25, .cls-26, .cls-27, .cls-28 {
        stroke-width: 0px;
      }

      .cls-6 {
        fill: url(#radial-gradient-8);
      }

      .cls-29 {
        clip-path: url(#clippath-2);
      }

      .cls-30 {
        clip-path: url(#clippath-13);
      }

      .cls-31 {
        clip-path: url(#clippath-15);
      }

      .cls-32 {
        clip-path: url(#clippath-6);
      }

      .cls-7 {
        fill: url(#radial-gradient-13);
      }

      .cls-8 {
        fill: url(#radial-gradient-12);
      }

      .cls-9 {
        fill: none;
      }

      .cls-33 {
        clip-path: url(#clippath-21);
      }

      .cls-34 {
        clip-path: url(#clippath-1);
      }

      .cls-35 {
        clip-path: url(#clippath-4);
      }

      .cls-10 {
        fill: url(#radial-gradient-19);
      }

      .cls-11 {
        fill: url(#radial-gradient-20);
      }

      .cls-36 {
        clip-path: url(#clippath-12);
      }

      .cls-12 {
        fill: #e31f26;
      }

      .cls-13 {
        fill: url(#radial-gradient-17);
      }

      .cls-14 {
        fill: url(#radial-gradient-21);
      }

      .cls-37 {
        clip-path: url(#clippath-22);
      }

      .cls-15 {
        fill: url(#radial-gradient-2);
      }

      .cls-16 {
        fill: url(#radial-gradient-7);
      }

      .cls-38 {
        clip-path: url(#clippath-9);
      }

      .cls-39 {
        clip-path: url(#clippath);
      }

      .cls-17 {
        fill: url(#radial-gradient-5);
      }

      .cls-18 {
        fill: url(#radial-gradient);
      }

      .cls-40 {
        clip-path: url(#clippath-19);
      }

      .cls-19 {
        fill: url(#radial-gradient-14);
      }

      .cls-20 {
        fill: url(#radial-gradient-18);
      }

      .cls-41 {
        clip-path: url(#clippath-8);
      }

      .cls-21 {
        fill: url(#radial-gradient-10);
      }

      .cls-22 {
        fill: #fff;
      }

      .cls-42 {
        clip-path: url(#clippath-18);
      }

      .cls-43 {
        clip-path: url(#clippath-14);
      }

      .cls-44 {
        fill: url(#linear-gradient-3);
      }

      .cls-45 {
        clip-path: url(#clippath-17);
      }

      .cls-46 {
        fill: url(#linear-gradient);
      }

      .cls-23 {
        fill: url(#radial-gradient-6);
      }

      .cls-24 {
        fill: url(#radial-gradient-15);
      }

      .cls-25 {
        fill: url(#radial-gradient-9);
      }

      .cls-26 {
        fill: url(#radial-gradient-3);
      }

      .cls-47 {
        clip-path: url(#clippath-10);
      }

      .cls-48 {
        clip-path: url(#clippath-23);
      }

      .cls-27 {
        fill: url(#radial-gradient-11);
      }

      .cls-49 {
        fill: url(#linear-gradient-4);
      }

      .cls-28 {
        fill: url(#radial-gradient-4);
      }
    </style>
    <clipPath id="clippath">
      <path class="cls-9" d="M13.67,7.44c-.7.02-1.39.1-2.08.18-.64.11-1.27.22-1.89.37-.62.15-1.23.34-1.83.55-1.18.41-2.33.96-3.41,1.58l-.36.22s.01.03.03.06c.02.04.06.08.1.05.18-.09.35-.19.53-.28,1.39-.72,2.85-1.31,4.37-1.68,1.49-.36,3.02-.52,4.55-.55.91.02,1.81.09,2.71.22,1.55.22,3.06.63,4.5,1.24,1.46.61,2.85,1.39,4.17,2.27l.82.57.4-.12.91-.08-1.32-.9c-1.78-1.2-3.71-2.18-5.76-2.82-1.37-.43-2.79-.72-4.23-.83-.55-.04-1.11-.07-1.66-.07-.19,0-.37,0-.56,0"/>
    </clipPath>
    <radialGradient id="radial-gradient" cx="-828.23" cy="443.59" fx="-828.23" fy="443.59" r=".82" gradientTransform="translate(-24960.62 13379.05) rotate(-180) scale(30.14)" gradientUnits="userSpaceOnUse">
      <stop offset="0" stop-color="#fff"/>
      <stop offset=".14" stop-color="#cfcedb"/>
      <stop offset=".33" stop-color="#9695b0"/>
      <stop offset=".44" stop-color="#8888a6"/>
      <stop offset=".64" stop-color="#63668d"/>
      <stop offset=".68" stop-color="#5b5e87"/>
      <stop offset=".83" stop-color="#354273"/>
      <stop offset=".91" stop-color="#213368"/>
      <stop offset="1" stop-color="#213368"/>
    </radialGradient>
    <clipPath id="clippath-1">
      <path class="cls-9" d="M2.26,35.98l.13.26c.37.77.78,1.52,1.22,2.24.4.64.82,1.29,1.31,1.87l.48.57-.04-.43-.18-.34-.3-.36s-.03-.04-.08-.09h0c-.85-1.08-1.5-2.17-2.12-3.4-.07-.14-.41-.31-.42-.31Z"/>
    </clipPath>
    <radialGradient id="radial-gradient-2" cx="-864.55" cy="402.22" fx="-864.55" fy="402.22" r=".82" gradientTransform="translate(-5948.52 2804.95) rotate(-180) scale(6.89)" xlink:href="#radial-gradient"/>
    <clipPath id="clippath-2">
      <path class="cls-9" d="M26.29,12.13l-.61.3-.29,1.07-3.13,11.73c-.52,1.81-1.19,3.59-2.05,5.26-.7,1.35-1.27,2.2-2.25,3.37-.96,1.16-2.08,2.19-3.29,3.08,0,0,0,0,0,0-.42.31-.85.59-1.29.86-1.26.76-2.59,1.36-4.01,1.74-1.24.33-2.54.52-3.82.46,0,0,0,0,0,0-.05,0-.22.28-.27.28l-.14.17.02.02.26.44.62.07s.06,0,.09,0c0,0,0,0,0,0,1.26.1,2.56-.09,3.78-.38,0,0,0,0,0,0,1-.23,1.98-.59,2.91-1.03.5-.23.99-.49,1.46-.77.46-.27.88-.58,1.32-.87,1.55-1.13,2.9-2.51,4.05-4.04,1.73-2.3,2.96-4.96,3.77-7.71v-.03c.07-.21.13-.42.18-.63l3.13-11.69.48-1.79-.91.08Z"/>
    </clipPath>
    <radialGradient id="radial-gradient-3" cx="-825.07" cy="447.1" fx="-825.07" fy="447.1" r=".82" gradientTransform="translate(-34550.9 18749.15) rotate(-180) scale(41.91)" xlink:href="#radial-gradient"/>
    <clipPath id="clippath-4">
      <path class="cls-9" d="M12.51,7.73c-.44.03-.87.08-1.31.13-.43.06-.85.13-1.27.21-.41.09-.82.18-1.23.3-.4.11-.8.24-1.19.39-.39.14-.78.3-1.16.46-.38.17-.76.34-1.12.52-.37.18-.73.37-1.08.57l-.76.44-.27,1.02L.92,20.08c-.15.58-.28,1.17-.39,1.76-.11.59-.21,1.18-.28,1.77-.07.59-.13,1.18-.16,1.76-.03.59-.04,1.17-.02,1.74.02.58.06,1.16.13,1.74.07.58.16,1.16.28,1.74.12.58.26,1.16.42,1.74.16.58.34,1.16.55,1.73.33.88.68,1.67,1.04,2.38.36.72.73,1.35,1.05,1.87.33.53.62.94.84,1.23.22.29.35.46.37.48l.38.45.5.05s.21.02.52.02c.31,0,.76,0,1.3-.07.56-.06,1.22-.16,1.96-.35.76-.19,1.6-.47,2.49-.86.58-.28,1.17-.59,1.74-.94.58-.35,1.15-.75,1.71-1.17.56-.43,1.11-.91,1.63-1.42.53-.52,1.03-1.07,1.5-1.66.47-.6.92-1.23,1.34-1.91.42-.68.81-1.39,1.17-2.13.36-.74.69-1.52.99-2.31.3-.79.56-1.6.8-2.42l3.13-11.73.39-1.44-1.06-.73c-.48-.32-.96-.62-1.45-.9-.48-.28-.96-.54-1.45-.78-.48-.24-.96-.46-1.45-.65-.48-.19-.95-.37-1.43-.52-.47-.15-.95-.27-1.43-.38-.47-.1-.95-.19-1.42-.26-.47-.07-.93-.12-1.39-.16-.46-.04-.91-.06-1.36-.07-.45,0-.89.02-1.34.06"/>
    </clipPath>
    <radialGradient id="radial-gradient-4" cx="-821.7" cy="451.37" fx="-821.7" fy="451.37" r=".82" gradientTransform="translate(-63815.03 35104.89) rotate(180) scale(77.65)" gradientUnits="userSpaceOnUse">
      <stop offset="0" stop-color="#fff"/>
      <stop offset=".14" stop-color="#fff"/>
      <stop offset=".42" stop-color="#fff"/>
      <stop offset=".46" stop-color="#fbfbfc"/>
      <stop offset=".49" stop-color="#f0f1f4"/>
      <stop offset=".52" stop-color="#dde0e8"/>
      <stop offset=".55" stop-color="#c3c7d6"/>
      <stop offset=".58" stop-color="#a1a8bf"/>
      <stop offset=".61" stop-color="#7782a2"/>
      <stop offset=".63" stop-color="#475682"/>
      <stop offset=".65" stop-color="#213368"/>
      <stop offset=".66" stop-color="#233569"/>
      <stop offset=".66" stop-color="#2b3d6f"/>
      <stop offset=".66" stop-color="#3a4a79"/>
      <stop offset=".66" stop-color="#4e5c86"/>
      <stop offset=".66" stop-color="#687598"/>
      <stop offset=".66" stop-color="#8992ae"/>
      <stop offset=".66" stop-color="#afb6c9"/>
      <stop offset=".66" stop-color="#dadde6"/>
      <stop offset=".66" stop-color="#fff"/>
      <stop offset=".79" stop-color="#fdfdfd"/>
      <stop offset=".83" stop-color="#f6f6f9"/>
      <stop offset=".87" stop-color="#eaebf0"/>
      <stop offset=".9" stop-color="#d9dce5"/>
      <stop offset=".92" stop-color="#c2c7d6"/>
      <stop offset=".94" stop-color="#a7aec3"/>
      <stop offset=".96" stop-color="#8690ac"/>
      <stop offset=".98" stop-color="#606d92"/>
      <stop offset=".99" stop-color="#364676"/>
      <stop offset="1" stop-color="#213368"/>
    </radialGradient>
    <linearGradient id="linear-gradient" x1="2.11" y1="-.53" x2="2.67" y2="41.34" gradientUnits="userSpaceOnUse">
      <stop offset="0" stop-color="#fff"/>
      <stop offset="1" stop-color="#213368"/>
    </linearGradient>
    <clipPath id="clippath-6">
      <path class="cls-9" d="M10.94,9.56c-.78.09-1.54.23-2.29.43-.74.19-1.46.43-2.17.72-.7.28-1.39.61-2.06.99l-.22.12h0s6.33,7.79,6.33,7.79l.07.09,13.27-6.33h0s-.29-.21-.29-.21c-.85-.62-1.7-1.16-2.57-1.63-.85-.45-1.71-.83-2.57-1.13-.84-.29-1.69-.52-2.55-.67-.83-.15-1.67-.24-2.52-.27-.17,0-.35,0-.52,0-.64,0-1.28.04-1.9.11"/>
    </clipPath>
    <radialGradient id="radial-gradient-5" cx="-832.42" cy="438.53" fx="-832.42" fy="438.53" r=".82" gradientTransform="translate(-17779.24 9392.24) rotate(-180) scale(21.39)" xlink:href="#radial-gradient"/>
    <linearGradient id="linear-gradient-2" x1="-.47" y1="43.24" x2="27.36" y2="9.95" gradientUnits="userSpaceOnUse">
      <stop offset="0" stop-color="#fff"/>
      <stop offset="1" stop-color="#213368"/>
    </linearGradient>
    <clipPath id="clippath-8">
      <path class="cls-9" d="M4.12,12.12l-2.18,8.23c-.37,1.39-.59,2.69-.69,3.91-.11,1.22-.1,2.36-.01,3.42.09,1.07.26,2.06.47,2.96.22.92.49,1.74.77,2.47.31.8.64,1.52.97,2.16.34.65.67,1.21.97,1.67.3.47.57.84.77,1.09.2.26.32.4.34.43l.11.13h0l4.86-18.83.04-.14-6.33-7.79-.08.3Z"/>
    </clipPath>
    <radialGradient id="radial-gradient-6" cx="-827.5" cy="444.39" fx="-827.5" fy="444.39" r=".82" gradientTransform="translate(-26689.7 14344.54) rotate(180) scale(32.26)" xlink:href="#radial-gradient"/>
    <clipPath id="clippath-9">
      <path class="cls-9" d="M10.81,10.11c-.77.09-1.52.22-2.26.41-.72.18-1.43.42-2.11.69-.67.27-1.33.58-1.97.93-.05.19-.13.48-.23.89-.11.4-.25.93-.42,1.59-.17.66-.39,1.46-.64,2.42-.25.96-.55,2.08-.9,3.38-.2.75-.35,1.48-.47,2.18h0s0,.03,0,.05c0,.04-.02.09-.02.13,0,0,0,0,0,0-.25,1.59-.3,3.05-.22,4.4.13,2.02.57,3.81,1.13,5.32.58,1.56,1.28,2.85,1.87,3.79.61.96,1.1,1.55,1.21,1.68h0s0,0,0,0h0s0,0,0,0c0,0,0,0,0,0,0,0,0,0,0,0,0,0,0,0,0,0h0s0,0,0,0h0s0,0,0,0h0s.01,0,.04,0c.12,0,.46,0,.97-.04h0c.15-.01.31-.03.48-.06.95-.14,2.3-.45,3.81-1.17,1.57-.75,3.31-1.94,4.92-3.8,1.54-1.77,2.93-4.12,3.89-7.16.08-.25.16-.5.23-.76,0,0,0-.01,0-.02,0,0,0,0,0-.02,0,0,0-.01,0-.02,0,0,0,0,0-.02,0,0,0-.01,0-.02,0,0,0-.01,0-.02,0,0,0-.01,0-.02,0,0,0-.01,0-.02,0-.01,0-.02,0-.04,0-.01,0-.03,0-.04,0-.01,0-.02.01-.04,0-.01,0-.02,0-.04.46-1.73.86-3.22,1.2-4.5.34-1.28.63-2.34.86-3.22.24-.88.42-1.58.56-2.11.05-.2.1-.38.14-.54h0c.07-.27.13-.48.17-.64-.79-.59-1.6-1.12-2.44-1.57-.81-.44-1.64-.82-2.49-1.13-.82-.3-1.66-.53-2.5-.7-.82-.16-1.66-.26-2.5-.3-.13,0-.25,0-.38,0,0,0,0,0,0,0-.1,0-.19,0-.29,0-.59,0-1.17.03-1.75.09"/>
    </clipPath>
    <radialGradient id="radial-gradient-7" cx="-805.44" cy="445.22" fx="-805.44" fy="445.22" r=".82" gradientTransform="translate(24720.68 13683.58) scale(30.7 -30.7)" xlink:href="#radial-gradient"/>
    <clipPath id="clippath-10">
      <path class="cls-9" d="M10.81,10.11c-.77.09-1.52.22-2.26.41-.72.18-1.43.42-2.11.69-.67.27-1.33.58-1.97.93-.05.19-.13.48-.23.89-.11.4-.25.93-.42,1.59-.17.66-.39,1.46-.64,2.42-.25.96-.55,2.08-.9,3.38-.2.75-.35,1.48-.47,2.18h0s0,.03,0,.05c0,.04-.02.09-.02.13,0,0,0,0,0,0-.25,1.59-.3,3.05-.22,4.4.13,2.02.57,3.81,1.13,5.32.58,1.56,1.28,2.85,1.87,3.79.61.96,1.1,1.55,1.21,1.68h0s0,0,0,0h0s0,0,0,0c0,0,0,0,0,0,0,0,0,0,0,0,0,0,0,0,0,0h0s0,0,0,0h0s0,0,0,0h0s.01,0,.04,0c.12,0,.46,0,.97-.04h0c.15-.01.31-.03.48-.06.95-.14,2.3-.45,3.81-1.17,1.57-.75,3.31-1.94,4.92-3.8,1.54-1.77,2.93-4.12,3.89-7.16.08-.25.16-.5.23-.76,0,0,0-.01,0-.02,0,0,0,0,0-.02,0,0,0-.01,0-.02,0,0,0,0,0-.02,0,0,0-.01,0-.02,0,0,0-.01,0-.02,0,0,0-.01,0-.02,0,0,0-.01,0-.02,0-.01,0-.02,0-.04,0-.01,0-.03,0-.04,0-.01,0-.02.01-.04,0-.01,0-.02,0-.04.46-1.73.86-3.22,1.2-4.5.34-1.28.63-2.34.86-3.22.24-.88.42-1.58.56-2.11.05-.2.1-.38.14-.54h0c.07-.27.13-.48.17-.64-.79-.59-1.6-1.12-2.44-1.57-.81-.44-1.64-.82-2.49-1.13-.82-.3-1.66-.53-2.5-.7-.82-.16-1.66-.26-2.5-.3-.13,0-.25,0-.38,0,0,0,0,0,0,0-.1,0-.19,0-.29,0-.59,0-1.17.03-1.75.09"/>
    </clipPath>
    <radialGradient id="radial-gradient-8" cx="-805.44" cy="445.22" fx="-805.44" fy="445.22" r=".82" gradientTransform="translate(24720.68 13683.58) scale(30.7 -30.7)" gradientUnits="userSpaceOnUse">
      <stop offset="0" stop-color="#fff"/>
      <stop offset=".17" stop-color="#cfcedb"/>
      <stop offset=".38" stop-color="#9695b0"/>
      <stop offset=".47" stop-color="#8888a6"/>
      <stop offset=".64" stop-color="#63668d"/>
      <stop offset=".68" stop-color="#5b5e87"/>
      <stop offset=".83" stop-color="#354273"/>
      <stop offset=".91" stop-color="#213368"/>
      <stop offset="1" stop-color="#213368"/>
    </radialGradient>
    <clipPath id="clippath-11">
      <polygon class="cls-9" points="18.1 24.75 17.54 24.58 17.89 25.2 17.44 25.71 18.01 25.71 18.01 26.51 18.38 25.88 18.83 26.36 18.71 25.59 19.27 25.4 18.76 25.05 19.01 24.33 18.48 24.68 18.23 23.97 18.1 24.75"/>
    </clipPath>
    <radialGradient id="radial-gradient-9" cx="-806.96" cy="447.97" fx="-806.96" fy="447.97" r=".82" gradientTransform="translate(27970.71 18873.06) rotate(3.04) scale(35.53 -38.73) skewX(-.83)" xlink:href="#radial-gradient"/>
    <clipPath id="clippath-12">
      <polygon class="cls-9" points="19.03 19.99 18.67 20.11 18.97 20.41 18.93 20.92 19.23 20.62 19.57 20.81 19.46 20.33 19.71 19.94 19.34 19.94 19.15 19.5 19.03 19.99"/>
    </clipPath>
    <radialGradient id="radial-gradient-10" cx="-806.96" cy="447.98" fx="-806.96" fy="447.98" r=".82" gradientTransform="translate(27981.6 18880.42) rotate(3.04) scale(35.54 -38.74) skewX(-.83)" xlink:href="#radial-gradient"/>
    <clipPath id="clippath-13">
      <polygon class="cls-9" points="14.51 18.47 13.96 18.29 14.3 18.92 13.85 19.41 14.42 19.42 14.41 20.21 14.78 19.6 15.22 20.09 15.11 19.32 15.66 19.14 15.16 18.79 15.42 18.08 14.9 18.41 14.66 17.7 14.51 18.47"/>
    </clipPath>
    <radialGradient id="radial-gradient-11" cx="-806.96" cy="447.97" fx="-806.96" fy="447.97" r=".82" gradientTransform="translate(27973.83 18875.17) rotate(3.04) scale(35.53 -38.73) skewX(-.83)" xlink:href="#radial-gradient"/>
    <clipPath id="clippath-14">
      <polygon class="cls-9" points="20.35 16.23 19.78 16.07 20.13 16.7 19.68 17.22 20.26 17.22 20.26 18.03 20.64 17.39 21.09 17.89 20.97 17.1 21.54 16.9 21.02 16.55 21.28 15.81 20.74 16.16 20.49 15.44 20.35 16.23"/>
    </clipPath>
    <radialGradient id="radial-gradient-12" cx="-806.95" cy="447.97" fx="-806.95" fy="447.97" r=".82" gradientTransform="translate(27961.92 18867.11) rotate(3.04) scale(35.52 -38.71) skewX(-.83)" xlink:href="#radial-gradient"/>
    <clipPath id="clippath-15">
      <polygon class="cls-9" points="17.29 13.49 16.72 13.31 17.07 13.95 16.61 14.45 17.19 14.46 17.18 15.26 17.56 14.64 18 15.14 17.89 14.36 18.46 14.18 17.95 13.82 18.21 13.09 17.68 13.43 17.44 12.71 17.29 13.49"/>
    </clipPath>
    <radialGradient id="radial-gradient-13" cx="-806.95" cy="447.97" fx="-806.95" fy="447.97" r=".82" gradientTransform="translate(27963.15 18867.94) rotate(3.04) scale(35.52 -38.72) skewX(-.83)" xlink:href="#radial-gradient"/>
    <clipPath id="clippath-16">
      <path class="cls-9" d="M11.18,14.59c.21-.04.41,0,.56.03.15.03.26.06.31.03.1-.06.06-.16.06-.16.01-.08-.11-.33-.11-.33,0,0-.36.27-.82.43M9.93,33.92c.03.08.06.14.08.2.04.11.06.2.06.26,0,0,0,0,0,0-.04.03-.1.06-.16.09-.1.05-.19.08-.24.1-.09.04-.17.08-.24.14.19-.27.36-.55.49-.8M6.77,35.06s0,0,0,0c0-.04.11-.19.24-.29.13-.11.28-.18.33-.19.24-.06.45-.25.7-.59.02-.03.04-.05.06-.08,0-.04.01-.07.02-.11.03-.14.09-.4.11-.75.02-.36-.02-.82-.13-1.47-.13-.72.04-1.73.28-2.58.05-.2.11-.39.17-.56.17.55.36,1.09.55,1.63-.08.51-.26,2.12.37,3.05.07.1.13.19.18.28-.03.06-.07.13-.11.21-.17.32-.41.7-.66.99-.17.2-.38.4-.56.55-.09.07-.17.13-.22.17-.02,0-.03.02-.04.02-.43-.09-.86-.18-1.29-.27M5.34,30.15c-.14-.29-.1-.68-.02-.96.02-.08.05-.15.07-.18.13-.29.37-.77.52-1.26,0-.03.02-.06.03-.09,0-.03.04-.14.08-.28.22-.72.82-2.55,1.27-3.8.17.85.36,1.7.58,2.54-.1.1-.2.21-.3.32-.25.28-.52.58-.74.87-.22.3-.41.55-.53.87-.05.14-.09.27-.13.38-.07.24-.11.43-.13.57,0,.06-.02.12-.02.15-.11.19-.3.56-.46.79-.06.09-.11.17-.14.22-.02-.02-.05-.07-.08-.14M4.43,21.45s.06-.04.09-.06c.14-.1.26-.2.34-.27-.38,1.09-.72,2.21-.97,3.2.12-.89.31-1.89.54-2.87M4.07,20.87s-.05-.04-.05-.09c0-.06,0-.19.07-.43.03-.12.07-.21.09-.28.08-.17.11-.19.18-.25.07-.05.17-.07.26-.08,4.87-.22,6.6-.36,7.12-.14.15.06.26.15.43.3.34.32.67.8.81,1.96.24,1.99.46,3.28.54,4.19.08.92.04,1.44-.12,2.06-.2.79-.65,1.81-1.24,3.61-.03.07-.05.15-.06.23-.18.79-.24,1.95-.2,2.36h0s0,.02,0,.03c-.02.12-.16.42-.33.68-.17.26-.38.51-.53.61-.1.07-.22.13-.3.15-.04.02-.08.03-.11.03,0,0,0,0,0,0-.14-.02-.7-.1-1.23-.2.1-.23.2-.36.4-.44.04-.02.19-.07.34-.15.08-.04.15-.08.23-.15.07-.07.17-.14.22-.35,0,0,0,0,0,0h0s0-.01,0-.02c.06-.4-.06-.96-.72-1.95-.27-.39-.35-1.03-.34-1.61,0-.28.03-.55.05-.73.02-.19.04-.29.04-.29,0-.05.02-.1.03-.14-.97-2.68-1.7-5.59-2.16-8.42-.02-.01-.03-.03-.05-.04,0,0-1.38-.68-1.97-.93-.14-.06-.27-.09-.39-.09-.02,0-.04,0-.07,0-.03.02-.05.05-.07.07,0,0-.04.03-.1.09-.17.16-.52.4-.68.4-.02,0-.04,0-.05-.01M4.94,18.51c.32-.02.65-.03.98-.05-.07.15-.14.31-.21.47-.18,0-.36.01-.54.02.05-.15.11-.29.16-.43-.06.14-.13.28-.19.43-.09,0-.18,0-.27.01-.02,0-.04,0-.06,0,.04-.16.09-.31.14-.46M8.43,17.38c.16-.99.52-2.21,1.25-3.47.02-.04.04-.07.06-.11,0-.04,0-.08-.01-.11-.02-.14-.02-.29,0-.37.02-.06.03-.09.12-.16.06-.04.1-.05.14-.04.08.01.15.1.12.27-.01.08-.02.15-.04.23.06,0,.12.01.17.02.62.07,1.28.29,1.68.33.15.02.18.06.22.12.04.06.07.18.16.32.07.1.16.16.28.23.3.18.77.38,1.03.46,0,0,0,.02-.02.03-.1.17-.13.22-.16.25-.01.02-.03.03-.05.06-.14-.11-.3-.18-.47-.2-.29-.04-.64.12-.82.57-.05.12-.08.25-.1.37-.05.44.16.72.3.84.06.06.13.1.2.14-.2.09-.42.25-.61.54-.02.04-.05.07-.07.11,0,.05,0,.09.01.13.03.27.19.69.21.95,0,0-.02,0-.03-.01-.48-.19-1.42-.14-3.61-.04-.03-.3-.09-.68.03-1.45M9.73,12.72c-.2.13-.34.34-.4.54-.05.2-.05.37-.04.5-.74,1.27-1.13,2.53-1.3,3.57-.13.81-.11,1.12-.11,1.51-.48.02-1.11.04-1.78.06.09-.2.17-.4.25-.58.28-.29.55-.55.79-.78l-1.05.03s.35.03.17.32c-.14.24-.6.49-1.02.34-.41-.16.02-.59.3-.64l-1.15.03c-.01.25-.01.52,0,.81-.06.28-.11.54-.16.79-.15.15-.31.38-.43.67-.06.15-.12.31-.17.49-.09.34-.14.62-.12.85.02.23.11.36.22.4,0,0,0,0,.01,0-.36,1.89-.45,2.81-.28,4.18-.07.09-.13.18-.19.27.15.12.3.23.45.33,0-.16,0-.34,0-.54.07.05.14.11.21.16-.07.14-.14.26-.2.38.13-.12.25-.24.39-.38-.08-.08-.15-.16-.22-.25.26-1.19.75-2.92,1.32-4.57.45.19,1.7.76,1.77.82.04.23.08.46.12.69-.43,1.15-1.27,3.61-1.53,4.49-.05.15-.08.25-.1.32,0,.02-.01.03-.01.05-.1.32-.31.77-.45,1.07-.05.11-.1.23-.14.37-.14.46-.22,1.15.04,1.66.1.19.19.31.32.36,0,0,0,0,.01,0,.15.04.32-.1.4-.22.09-.12.15-.23.2-.3.21-.33.46-.8.51-.9.04-.07.07-.15.09-.21.07-.31.04-.38.15-.75.02-.09.05-.18.09-.29.01-.05.16-.3.36-.55.28-.36.66-.78.98-1.13.09.31.18.63.27.94-.11.29-.25.7-.38,1.17-.26.92-.48,2.08-.31,3.03.11.6.13.98.12,1.24,0,.2-.04.34-.07.48-.19.24-.24.27-.35.3-.14.04-.32.14-.51.29-.18.16-.38.35-.48.68-.11.37-.11.37-.11.37-.04.12-.07.24-.11.36.62.13,1.25.25,1.87.36.15.01.21-.05.3-.09.21-.13.49-.39.75-.66-.1.19-.18.4-.23.6-.03.11-.07.22-.1.33.09.02.18.03.27.05.69.12,1.57.24,1.57.24.01,0,.02,0,.03,0,0,0,.02,0,.03,0,.02,0,.33-.05.64-.28.24-.17.47-.45.67-.76.2-.31.37-.62.44-.94.02-.09.03-.18.02-.29-.03-.24.03-1.49.18-2.09.01-.06.03-.11.04-.14.38-1.17.71-2.01.95-2.7.04.1.18.42.48.19.35-.26.28-.5.08-.61-.11-.06-.18-.41-.22-.72.16-.7.2-1.4.11-2.32-.09-.99-.31-2.29-.55-4.27-.14-1.16-.47-1.77-.8-2.14-.1-.28-.27-1-.34-1.39.24-.3.52-.32.67-.31.03,0,.06,0,.07,0,.02,0,.02,0,.02,0,.06.02.13.04.19.06.03-.08.05-.16.08-.24,0-.02.05-.15.06-.33,0,0,0,0,0-.01.32.17.65.21.98-.41-.26.31-.46.07-.68-.16-.16-.17-.33-.34-.55-.3-.23.03-.41.15-.54.28,0,0-.02-.01-.02-.02-.11-.11-.16-.19-.14-.32,0-.04.02-.1.05-.17.08-.19.2-.25.38-.24.14.01.29.1.38.21.05.06.1.13.15.19.05-.07.1-.13.16-.2.09-.12.12-.15.18-.22.06-.07.12-.16.22-.34.06-.11.1-.22.11-.33.02-.32-.15-.46-.16-.47-.01,0-.02-.02-.03-.03-.01,0-.03,0-.04-.01-.09-.02-.39-.13-.65-.26-.13-.06-.26-.13-.36-.19-.05-.03-.09-.06-.12-.08-.01-.01-.03-.02-.03-.03,0,0,0,0,0,0-.04-.05-.07-.17-.15-.31-.08-.14-.24-.26-.46-.28-.31-.04-.91-.22-1.5-.32-.02-.29-.17-.5-.39-.53-.02,0-.04,0-.06,0-.11,0-.23.04-.35.12"/>
    </clipPath>
    <radialGradient id="radial-gradient-14" cx="-809.93" cy="449.12" fx="-809.93" fy="449.12" r=".82" gradientTransform="translate(39230.84 22050.54) rotate(1.38) scale(48.01 -46.96) skewX(-2.29)" xlink:href="#radial-gradient"/>
    <clipPath id="clippath-17">
      <path class="cls-9" d="M10.57,14.47c.21-.04.4,0,.55.03.15.03.25.06.3.03.1-.06.06-.16.06-.16.01-.08-.11-.33-.1-.33,0,0-.35.27-.8.43M9.35,33.8c.03.07.06.14.08.2.04.11.06.2.06.26,0,0,0,0,0,0-.04.03-.1.06-.15.09-.09.05-.19.08-.24.1-.09.04-.16.09-.23.14.19-.27.35-.55.48-.8M6.28,34.94s0,0,0,0c0-.04.1-.19.23-.29.12-.11.27-.18.32-.19.24-.06.44-.25.68-.59.02-.03.04-.05.06-.08,0-.04.01-.07.02-.11.03-.14.09-.4.1-.75.01-.36-.02-.82-.13-1.47-.13-.72.04-1.73.27-2.58.05-.2.11-.39.16-.56.17.55.35,1.09.54,1.63-.08.51-.26,2.12.36,3.05.07.1.13.19.18.28-.03.06-.07.13-.1.21-.16.32-.39.7-.64.99-.17.2-.37.4-.54.55-.08.07-.16.13-.21.17-.01,0-.03.02-.04.02-.42-.09-.84-.18-1.26-.27M4.89,30.03c-.14-.29-.09-.68-.02-.96.02-.08.05-.15.06-.18.13-.29.36-.77.5-1.26,0-.03.02-.06.03-.09,0-.03.04-.13.08-.28.21-.72.79-2.55,1.23-3.81.17.85.36,1.7.57,2.54-.09.1-.19.21-.29.32-.25.28-.5.58-.72.88-.22.3-.4.55-.52.87-.05.14-.09.27-.12.38-.07.24-.1.43-.12.57,0,.06-.02.12-.02.15-.11.19-.3.56-.44.79-.06.09-.1.17-.13.22-.02-.02-.05-.07-.08-.14M4,21.33s.06-.04.09-.06c.14-.1.26-.2.33-.27-.37,1.08-.7,2.21-.95,3.2.12-.89.3-1.89.53-2.87M3.65,20.75s-.04-.04-.05-.09c0-.06,0-.19.07-.43.03-.12.06-.21.09-.28.07-.17.1-.19.17-.25.07-.05.17-.07.26-.08,4.73-.22,6.42-.36,6.92-.14.15.06.26.15.41.3.33.32.65.8.79,1.96.24,1.99.45,3.28.52,4.19.08.92.04,1.44-.12,2.06-.19.79-.63,1.81-1.21,3.61-.02.07-.04.15-.06.23-.18.79-.23,1.95-.2,2.36h0s0,.02,0,.03c-.02.12-.16.42-.32.68-.17.26-.37.5-.51.61-.1.07-.21.13-.3.16-.04.02-.08.03-.11.03,0,0,0,0,0,0-.14-.02-.68-.1-1.2-.2.09-.23.2-.36.39-.44.04-.02.19-.07.33-.15.07-.04.15-.08.22-.14.07-.07.16-.14.21-.35,0,0,0,0,0,0h0s0-.01,0-.02c.06-.4-.06-.96-.7-1.95-.26-.39-.34-1.03-.33-1.61,0-.29.02-.55.04-.74.02-.19.04-.29.04-.29,0-.05.02-.1.03-.14-.94-2.68-1.66-5.59-2.1-8.42-.02-.01-.03-.03-.05-.04,0,0-1.34-.68-1.92-.93-.14-.06-.26-.1-.38-.09-.02,0-.04,0-.07,0-.03.02-.05.05-.07.07,0,0-.03.03-.1.09-.16.16-.51.4-.66.4-.02,0-.03,0-.04-.01M4.5,18.38c.32-.02.63-.03.95-.05-.07.15-.14.31-.21.47-.17,0-.35.01-.53.02.05-.15.1-.29.16-.43-.06.14-.12.28-.18.43-.09,0-.18,0-.26,0-.02,0-.04,0-.06,0,.04-.16.09-.31.13-.46M7.89,17.26c.15-.99.51-2.21,1.21-3.47.02-.04.04-.07.06-.11,0-.04,0-.08-.01-.11-.02-.14-.02-.29,0-.37.02-.06.03-.09.12-.16.06-.04.1-.05.13-.04.08.01.14.1.12.28-.01.08-.02.15-.04.23.06,0,.11.01.17.02.61.07,1.24.29,1.63.33.14.02.17.06.21.12.04.06.07.18.16.32.07.11.16.16.27.23.3.18.75.38,1,.46,0,0,0,.02-.01.03-.1.17-.13.22-.16.25-.01.02-.03.03-.05.06-.14-.11-.29-.18-.46-.2-.28-.04-.62.12-.8.57-.05.12-.08.25-.1.37-.05.44.16.72.29.84.06.06.13.1.19.14-.19.09-.4.25-.59.54-.02.04-.04.07-.07.11,0,.04,0,.09.01.14.03.27.18.69.2.94,0,0-.02,0-.03-.01-.47-.19-1.38-.14-3.51-.04-.03-.3-.09-.68.03-1.45M9.16,12.6c-.19.12-.33.34-.39.54-.05.2-.05.37-.04.51-.72,1.27-1.1,2.53-1.26,3.57-.13.81-.1,1.12-.1,1.51-.47.02-1.08.04-1.73.06.08-.2.17-.4.25-.58.27-.29.53-.55.77-.78l-1.02.03s.34.03.16.32c-.14.24-.58.49-.99.34-.4-.16.03-.59.29-.64l-1.12.03c-.01.25-.01.52,0,.81-.05.28-.1.54-.15.8-.15.15-.3.38-.41.66-.06.15-.12.31-.17.49-.09.34-.13.62-.11.85.02.23.11.36.22.4,0,0,0,0,.01,0-.35,1.89-.43,2.81-.27,4.18-.06.09-.12.18-.18.27.14.12.29.23.44.33,0-.16,0-.34,0-.54.07.05.13.11.2.16-.07.13-.14.26-.2.38.12-.12.25-.24.38-.38-.07-.08-.15-.16-.22-.25.25-1.19.73-2.93,1.28-4.58.44.2,1.65.76,1.72.82.04.23.08.46.12.69-.42,1.15-1.23,3.61-1.49,4.49-.04.15-.07.25-.09.32,0,.02,0,.03-.02.05-.09.32-.3.77-.44,1.07-.05.11-.09.23-.13.37-.13.46-.22,1.15.03,1.66.09.19.18.31.31.36,0,0,0,0,.01,0,.14.04.31-.1.39-.22.09-.12.14-.23.19-.3.21-.33.45-.8.5-.9.04-.07.07-.15.08-.21.07-.31.04-.38.14-.75.02-.08.05-.18.09-.29.01-.05.16-.3.35-.55.27-.36.64-.78.95-1.13.08.31.17.63.26.94-.11.29-.24.7-.37,1.17-.25.92-.47,2.08-.3,3.03.1.6.13.98.11,1.24,0,.21-.04.34-.06.48-.19.25-.23.27-.34.3-.14.04-.31.14-.49.29-.18.16-.37.35-.47.68-.11.37-.11.37-.11.37-.03.12-.07.24-.1.36.6.13,1.21.25,1.82.36.15.01.21-.04.3-.09.21-.14.48-.39.73-.66-.1.19-.17.4-.23.59-.03.11-.07.22-.1.33.09.02.17.03.26.05.67.12,1.53.24,1.53.24.01,0,.02,0,.03,0,.01,0,.02,0,.03,0,.02,0,.32-.06.62-.28.23-.17.46-.45.65-.76.2-.31.36-.62.43-.94.02-.09.03-.18.02-.29-.03-.24.03-1.49.17-2.08.01-.06.03-.11.04-.14.37-1.17.69-2,.93-2.7.03.1.17.42.47.2.34-.26.27-.51.08-.61-.11-.06-.18-.41-.22-.72.16-.7.19-1.4.11-2.32-.08-.99-.3-2.29-.54-4.27-.13-1.16-.46-1.77-.78-2.14-.1-.28-.26-1-.33-1.39.23-.3.5-.32.65-.31.03,0,.05,0,.07,0,.01,0,.02,0,.02,0,.06.02.12.04.19.06.02-.08.05-.16.07-.24,0-.01.05-.15.06-.33,0,0,0,0,0-.01.31.17.64.21.95-.41-.25.31-.44.07-.66-.16-.16-.17-.32-.34-.54-.31-.23.03-.4.15-.53.28,0,0-.01-.01-.02-.02-.1-.11-.16-.19-.14-.32,0-.04.02-.1.05-.17.08-.19.19-.25.36-.24.14.01.28.1.37.22.05.06.1.13.15.19.05-.07.1-.14.15-.2.09-.12.12-.15.18-.22.06-.07.11-.16.21-.34.06-.11.1-.22.1-.33.02-.32-.14-.46-.16-.47-.01,0-.02-.02-.03-.03-.01,0-.03,0-.04-.01-.09-.02-.38-.13-.63-.26-.13-.06-.26-.13-.35-.19-.05-.03-.09-.06-.12-.08-.01-.01-.03-.02-.03-.03,0,0,0,0,0,0-.04-.05-.07-.17-.15-.31-.08-.14-.23-.26-.44-.28-.3-.04-.88-.22-1.46-.32-.02-.29-.16-.5-.38-.53-.02,0-.04,0-.06,0-.1,0-.22.04-.34.12"/>
    </clipPath>
    <radialGradient id="radial-gradient-15" cx="-793.88" cy="435.03" fx="-793.88" fy="435.03" r=".82" gradientTransform="translate(12303.84 7046.33) rotate(1.44) scale(15.36 -15.46) skewX(-2.38)" xlink:href="#radial-gradient"/>
    <clipPath id="clippath-18">
      <path class="cls-9" d="M10.45,14.07c.21-.04.4-.01.55.02.14.03.24.05.29.02.1-.06.06-.16.06-.16.01-.08-.1-.32-.1-.32,0,0-.35.27-.8.44M8.93,33.11c.03.07.06.14.07.2.04.11.05.2.06.25,0,0,0,0,0,0-.04.03-.1.06-.15.09-.09.05-.18.08-.23.11-.09.04-.16.09-.23.14.19-.27.36-.55.49-.8M5.87,34.31s0,0,0,0c0-.04.1-.19.23-.29.12-.11.27-.19.32-.2.23-.07.44-.26.68-.59.02-.03.04-.05.06-.08,0-.04.01-.07.02-.11.03-.14.1-.39.12-.74.02-.35,0-.8-.1-1.45-.11-.7.07-1.71.31-2.54.06-.2.11-.38.17-.55.16.54.33,1.07.5,1.59-.08.5-.29,2.1.31,2.99.07.1.12.19.17.27-.03.06-.07.13-.11.2-.17.32-.4.7-.65.99-.17.2-.37.41-.54.56-.08.07-.16.13-.21.17-.02,0-.03.02-.04.02-.42-.08-.83-.15-1.24-.23M4.57,29.52c-.13-.28-.08-.66,0-.94.02-.08.05-.15.07-.18.13-.29.37-.76.52-1.25,0-.03.02-.06.03-.09,0-.03.04-.13.08-.27.22-.72.83-2.53,1.28-3.77.15.83.32,1.66.52,2.48-.09.1-.19.21-.29.32-.25.28-.51.59-.73.88-.22.3-.4.55-.53.87-.05.14-.09.27-.13.38-.07.24-.11.43-.13.57-.01.06-.02.11-.02.15-.11.19-.3.56-.45.79-.06.09-.1.17-.13.22-.02-.02-.05-.07-.08-.14M3.83,20.98s.06-.04.09-.06c.14-.1.26-.21.33-.28-.38,1.08-.73,2.19-.99,3.17.13-.88.33-1.87.57-2.83M3.49,20.42s-.04-.03-.05-.09c0-.06,0-.19.07-.43.03-.12.07-.21.09-.27.08-.17.1-.19.17-.25.07-.05.16-.08.26-.08,4.69-.33,6.37-.51,6.86-.3.14.06.25.14.4.29.32.31.63.77.75,1.91.2,1.95.39,3.21.45,4.11.06.91.01,1.41-.15,2.03-.2.78-.66,1.8-1.26,3.58-.03.07-.05.15-.07.23-.19.78-.26,1.93-.23,2.33,0,0,0,.02,0,.03-.02.12-.16.42-.33.68-.17.26-.38.51-.52.61-.1.07-.21.13-.3.16-.04.02-.08.03-.11.04,0,0,0,0,0,0-.14-.02-.68-.08-1.18-.17.1-.22.2-.36.39-.44.04-.02.19-.07.33-.15.07-.04.15-.09.22-.15.07-.07.16-.14.22-.35,0,0,0,0,0,0,0,0,0,0,0,0,0,0,0,0,0-.01.06-.4-.04-.95-.66-1.9-.25-.38-.32-1.01-.3-1.57,0-.28.03-.54.06-.72.02-.18.04-.29.04-.29,0-.05.02-.09.03-.14-.89-2.61-1.55-5.46-1.95-8.23-.02-.01-.03-.02-.05-.04,0,0-1.32-.64-1.89-.87-.13-.05-.26-.09-.37-.08-.02,0-.04,0-.06,0-.03.02-.05.05-.07.07,0,0-.04.03-.1.09-.17.16-.52.41-.66.41-.02,0-.03,0-.04-.01M4.37,18.07c.31-.03.63-.05.95-.07-.07.15-.14.31-.21.47-.17.01-.35.02-.53.03.05-.15.11-.29.16-.43-.06.14-.13.28-.19.43-.09,0-.17.01-.26.02-.02,0-.04,0-.06,0,.05-.16.09-.31.14-.46M7.75,16.88c.16-.98.54-2.19,1.26-3.45.02-.04.04-.07.06-.11,0-.04,0-.07-.01-.11-.02-.14-.02-.28,0-.36.02-.06.03-.09.12-.16.06-.04.1-.05.13-.05.08.01.14.1.11.27-.01.07-.03.15-.04.23.06,0,.11.01.17.02.6.06,1.22.25,1.62.29.14.02.17.06.21.11.04.06.07.18.15.31.07.1.16.15.27.22.29.17.74.35.98.43,0,0,0,.02-.02.03-.1.17-.13.22-.16.25-.01.01-.03.03-.05.06-.13-.11-.29-.17-.45-.18-.27-.03-.62.13-.8.58-.05.12-.09.24-.1.36-.06.43.15.7.28.82.06.06.12.1.19.13-.19.09-.4.25-.6.55-.02.04-.04.07-.07.11,0,.04,0,.09,0,.13.02.26.17.68.18.92,0,0-.02,0-.03-.01-.46-.17-1.36-.1-3.47.05-.02-.29-.08-.67.05-1.43M9.08,12.27c-.19.13-.34.34-.39.54-.05.2-.05.36-.04.5-.73,1.27-1.13,2.52-1.31,3.55-.14.8-.12,1.11-.13,1.49-.46.03-1.07.07-1.72.1.09-.2.17-.4.26-.58.27-.29.54-.56.78-.78l-1.01.06s.33.02.16.31c-.14.24-.58.5-.99.36-.39-.15.04-.58.3-.63l-1.11.06c-.02.25-.02.51-.02.79-.06.28-.11.54-.17.79-.15.15-.3.38-.42.66-.06.15-.12.31-.17.49-.1.34-.14.62-.13.84.01.22.1.35.21.39,0,0,0,0,.01,0-.38,1.87-.48,2.78-.34,4.12-.06.09-.13.18-.19.27.14.11.28.22.43.32,0-.16,0-.34,0-.53.06.05.13.1.2.15-.07.13-.14.26-.2.38.12-.12.25-.25.38-.38-.07-.08-.14-.16-.21-.24.26-1.17.77-2.9,1.34-4.53.43.18,1.62.71,1.69.76.03.23.07.45.11.68-.43,1.14-1.28,3.58-1.55,4.45-.05.15-.08.24-.1.32,0,.01-.01.03-.02.05-.1.32-.31.76-.45,1.07-.05.11-.1.23-.14.37-.14.46-.23,1.14,0,1.64.09.18.17.3.3.34,0,0,0,0,.01,0,.14.04.31-.1.39-.22.09-.12.14-.23.19-.3.21-.33.46-.8.51-.89.04-.07.07-.15.09-.21.08-.31.05-.38.15-.74.02-.09.06-.18.09-.28.01-.05.16-.3.35-.55.28-.36.65-.79.96-1.13.08.31.16.61.24.92-.11.29-.25.7-.39,1.16-.26.92-.5,2.05-.35,2.99.09.59.11.96.09,1.21-.01.2-.04.33-.07.48-.19.25-.23.27-.35.31-.14.04-.31.15-.49.3-.18.16-.37.35-.48.68-.11.37-.11.36-.11.36-.04.12-.07.24-.11.35.6.11,1.2.21,1.8.31.15,0,.21-.05.3-.1.21-.14.48-.39.73-.67-.1.19-.18.4-.24.59-.03.11-.07.22-.1.33.09.01.17.03.26.04.66.1,1.51.2,1.51.19.01,0,.02,0,.03,0,.01,0,.02,0,.03,0,.02,0,.32-.06.62-.29.23-.18.46-.46.66-.76.2-.31.37-.62.44-.93.02-.09.04-.18.03-.28-.03-.24.05-1.47.21-2.06.01-.06.03-.11.04-.14.39-1.16.72-1.99.96-2.68.03.1.16.41.46.18.34-.27.28-.5.09-.61-.11-.06-.17-.4-.2-.7.17-.7.21-1.38.14-2.28-.07-.97-.26-2.24-.46-4.19-.12-1.14-.43-1.73-.74-2.09-.09-.28-.24-.97-.31-1.36.24-.3.5-.33.65-.32.03,0,.05,0,.07,0,.02,0,.02,0,.02,0,.06.02.12.04.18.05.03-.08.05-.16.08-.24,0-.02.05-.15.07-.33,0,0,0,0,0-.01.31.16.63.2.95-.42-.25.31-.44.08-.65-.14-.15-.16-.32-.32-.53-.29-.22.04-.4.16-.53.29,0,0-.01-.01-.02-.02-.1-.1-.15-.18-.13-.31,0-.04.02-.1.05-.17.08-.19.19-.25.37-.25.13,0,.28.09.36.2.05.06.09.12.14.18.05-.07.1-.14.15-.2.09-.12.12-.15.18-.22.06-.07.12-.16.22-.34.06-.1.1-.22.11-.32.03-.31-.13-.44-.15-.46-.01,0-.02-.02-.03-.03-.01,0-.03,0-.04,0-.09-.02-.37-.12-.62-.24-.13-.06-.25-.12-.34-.17-.05-.03-.09-.05-.11-.08-.01,0-.03-.02-.03-.03,0,0,0,0,0,0-.04-.05-.07-.16-.14-.3-.08-.13-.22-.25-.44-.26-.3-.03-.87-.2-1.44-.27-.01-.29-.15-.49-.37-.51-.01,0-.03,0-.05,0-.11,0-.23.04-.34.12"/>
    </clipPath>
    <radialGradient id="radial-gradient-16" cx="-812.27" cy="451.5" fx="-812.27" fy="451.5" r=".82" gradientTransform="translate(57570.28 32059.11) scale(70.88 -70.88)" gradientUnits="userSpaceOnUse">
      <stop offset="0" stop-color="#fff"/>
      <stop offset=".14" stop-color="#fff"/>
      <stop offset=".42" stop-color="#fff"/>
      <stop offset=".5" stop-color="#fdfdfd"/>
      <stop offset=".53" stop-color="#f6f6f8"/>
      <stop offset=".54" stop-color="#eaeaef"/>
      <stop offset=".56" stop-color="#d9d9e3"/>
      <stop offset=".57" stop-color="#c4c3d2"/>
      <stop offset=".59" stop-color="#a9a8be"/>
      <stop offset=".6" stop-color="#8988a7"/>
      <stop offset=".6" stop-color="#807fa0"/>
      <stop offset=".6" stop-color="#8281a1"/>
      <stop offset=".6" stop-color="#8a89a8"/>
      <stop offset=".61" stop-color="#9998b2"/>
      <stop offset=".61" stop-color="#adacc1"/>
      <stop offset=".61" stop-color="#c7c6d5"/>
      <stop offset=".61" stop-color="#e6e6ec"/>
      <stop offset=".61" stop-color="#fff"/>
      <stop offset=".72" stop-color="#fcfcfd"/>
      <stop offset=".78" stop-color="#f5f5f8"/>
      <stop offset=".82" stop-color="#e7e9ef"/>
      <stop offset=".86" stop-color="#d5d8e2"/>
      <stop offset=".89" stop-color="#bcc2d2"/>
      <stop offset=".92" stop-color="#9ea6bd"/>
      <stop offset=".95" stop-color="#7b86a5"/>
      <stop offset=".97" stop-color="#526089"/>
      <stop offset="1" stop-color="#25366a"/>
      <stop offset="1" stop-color="#213368"/>
    </radialGradient>
    <clipPath id="clippath-19">
      <path class="cls-9" d="M5,14.77c1.01-.4.95.1.95.1.09-.36.02-.53-.17-.53-.17,0-.44.15-.78.43M6.24,13.29c-1.02.73-1.78.97-2.33.94-.04.15-.08.31-.13.48.36-.08.78-.26,1.25-.57,1.54-1.04,1.88-.2,1.67.48,0,.01,0,.03-.01.04.01-.28-.05-.51-.19-.64-.39-.36-.72-.05-1.92.61-.3.17-.58.23-.84.22,0,0,0,.01,0,.02-.05.17-.09.36-.15.56.09-.04.18-.09.26-.13,1.28-.76,1.44-1.13,1.94-1.2.5-.07.4.56.13,1.36-.07.2-.17.49-.27.77.03-.16.08-.35.13-.59.21-.91,0-.9-1.49-.35-.27.1-.51.17-.72.22-.05.18-.1.36-.15.55.28-.15.59-.34.9-.55,1.1-.75,1.06-.21.94.39-.08.36-.21.88-.27,1.15l1.42-.28c.06-.12.36-.98.54-1.78.16-.69.4-1.94-.16-1.94-.13,0-.32.07-.56.25"/>
    </clipPath>
    <radialGradient id="radial-gradient-17" cx="-781.25" cy="415.44" fx="-781.25" fy="415.44" r=".82" gradientTransform="translate(7891.3 2890.5) rotate(-7.4) scale(10.14 -9.32) skewX(6.34)" xlink:href="#radial-gradient"/>
    <clipPath id="clippath-20">
      <polygon class="cls-9" points="3.51 14.45 3.79 14.71 3.91 14.23 3.63 13.97 3.51 14.45"/>
    </clipPath>
    <radialGradient id="radial-gradient-18" cx="-687.5" cy="310.28" fx="-687.5" fy="310.28" r=".82" gradientTransform="translate(1933.94 575.36) rotate(-7.4) scale(2.82 -2.59) skewX(6.34)" xlink:href="#radial-gradient"/>
    <clipPath id="clippath-21">
      <polygon class="cls-9" points="3.31 15.16 3.59 15.42 3.75 14.85 3.47 14.59 3.31 15.16"/>
    </clipPath>
    <radialGradient id="radial-gradient-19" cx="-687.51" cy="310.3" fx="-687.51" fy="310.3" r=".82" gradientTransform="translate(1934.12 575.43) rotate(-7.4) scale(2.82 -2.59) skewX(6.34)" xlink:href="#radial-gradient"/>
    <clipPath id="clippath-22">
      <polygon class="cls-9" points="3.15 15.79 3.43 16.04 3.58 15.5 3.3 15.23 3.15 15.79"/>
    </clipPath>
    <radialGradient id="radial-gradient-20" cx="-687.43" cy="310.21" fx="-687.43" fy="310.21" r=".82" gradientTransform="translate(1932.78 574.91) rotate(-7.4) scale(2.82 -2.59) skewX(6.34)" xlink:href="#radial-gradient"/>
    <clipPath id="clippath-23">
      <path class="cls-9" d="M1.99,16.06c.2.13.64,0,1.17-.28l.14-.55c-.14.03-.27.06-.39.07.14-.04.27-.09.4-.15l.15-.57c-.16,0-.3-.03-.44-.08.15,0,.31-.03.48-.07l.13-.48c-.48-.02-.79-.24-.96-.52l-.69,2.61Z"/>
    </clipPath>
    <radialGradient id="radial-gradient-21" cx="-790" cy="425.26" fx="-790" fy="425.26" r=".82" gradientTransform="translate(10519.82 3914.05) rotate(-7.4) scale(13.37 -12.29) skewX(6.34)" xlink:href="#radial-gradient"/>
    <linearGradient id="linear-gradient-3" x1="21.3" y1="30.94" x2="8.36" y2="20.19" gradientUnits="userSpaceOnUse">
      <stop offset="0" stop-color="#fff"/>
      <stop offset="1" stop-color="#213368"/>
    </linearGradient>
    <linearGradient id="linear-gradient-4" x1="25.65" y1="9.52" x2="9.4" y2="44.83" xlink:href="#linear-gradient-3"/>
  </defs>
  <g id="Layer_1-2" data-name="Layer 1">
    <g>
      <g>
        <path class="cls-12" d="M11.39,13.45s2.47-3.92,4.16-6.49c1.7-2.57,4.29-1.69,5.65-1.65,1.36.04,1.49-.87,2-2.28.51-1.4,2.46-1.78,4.59-.74-.41,1.19.45,2.31,3.17,2.6,2.72.3,3.6,0,3.91-1.19.31-1.19,2.94-1.33,4.97-.18,2.03,1.15,3.49,2.04,6.12.94-3.61.43-4.37-1.56-5.76-2.78-1.76-1.55-4.22-1.9-5.8,1.35-1.37.4-4.09.32-5.54-.6.21-.98.22-1.96-2.1-2.36-2.33-.4-5.07.62-5.2,2.58-.13,1.96-.81,2.16-2.76,1.99-1.95-.17-3.52-.93-5.38,1.59-2.46,3.34-4.86,7.17-4.86,7.17l2.82.03Z"/>
        <g>
          <path class="cls-12" d="M17.7,13.83s-1.18-4.51.31-6.16c1.51-1.67,3.79-.7,5.11-.82,1.32-.12,1.9-.86,2.48-1.95.59-1.09,1.67.27,4.65.4-1.96-.45-3.23-1.24-3.96-1.79-.96-.73-1.9-.93-2.47,1.02-.72,2.41-2.54,1.64-5.25,2.12-2.12.38-3.58,3.19-2.47,7.13.74.02,1.6.05,1.6.05"/>
          <path class="cls-12" d="M16.18,13.31s-.91-2.41-.13-5.26c.59-1.31,1.87-2.16,3.25-2.04-1.71-.26-3.92.68-4.34,2.83-.42,2.15.59,4.79.59,4.79l-1.3.13,4.31.13-1.45-.65-.93.08Z"/>
          <path class="cls-12" d="M35.6,4.62s1.09-.85,4.86.86c-1.95-.45-4.33-.26-5.61.41-.5.26.75-1.26.75-1.26"/>
          <path class="cls-12" d="M16.84,12.42c0-.23.12-4.18,3.01-4.9,2.89-.71,5.28.71,5.92-.97.5-1.32.6-1.24,2.13-.99,1.53.26,3.75.93,5.65.63-2.51.72-5.2.66-6.36.54-1.94-.2-.97,1.87-2.38,1.87-1.4,0-5.57-.87-6.48,1.2-.91,2.07-1.48,2.61-1.48,2.61"/>
        </g>
        <g class="cls-39">
          <rect class="cls-18" x="3.89" y="6.05" width="23.52" height="7.58" transform="translate(-1.08 1.97) rotate(-6.96)"/>
        </g>
        <g class="cls-34">
          <rect class="cls-15" x="1.98" y="35.8" width="3.71" height="5.28" transform="translate(-4.63 .75) rotate(-6.96)"/>
        </g>
        <g class="cls-29">
          <rect class="cls-26" x="3.44" y="10.82" width="25.43" height="31.5" transform="translate(-3.1 2.15) rotate(-6.96)"/>
        </g>
        <g class="cls-35">
          <rect class="cls-28" x="-1.84" y="6.2" width="30.02" height="35.81" transform="translate(-2.82 1.77) rotate(-6.96)"/>
        </g>
        <path class="cls-46" d="M2.23,14.81c-.23.93-1.01,3.67-1.6,6.23C.05,23.6-.02,26.01,0,26c0,0-.11,2.41.49,4.98.52,2.59,1.73,5.21,2.22,6.03.86,1.54,1.44,2.37,2.43,3.45-.91-1.15-1.43-2-2.28-3.53-.48-.82-1.68-3.42-2.2-5.99-.59-2.55-.48-4.95-.48-4.94-.02,0,.04-2.38.61-4.94.59-2.54,1.38-5.3,1.6-6.22.45-1.7.67-2.67,1-4.1-.43,1.4-.71,2.36-1.16,4.06"/>
        <g class="cls-32">
          <rect class="cls-17" x="3.65" y="8.3" width="20.77" height="12.56" transform="translate(-1.66 1.81) rotate(-6.96)"/>
        </g>
        <path class="cls-1" d="M10.6,19.71l-.11.05-4.86,18.83h.14s.19.02.47.01c.28,0,.67-.03,1.16-.1.49-.07,1.08-.18,1.74-.37.67-.19,1.41-.46,2.2-.84.74-.35,1.56-.83,2.41-1.45.86-.64,1.75-1.43,2.62-2.41.88-1,1.73-2.2,2.49-3.61.77-1.43,1.43-3.08,1.93-4.96l2.97-11.11.11-.4-13.27,6.33Z"/>
        <g class="cls-41">
          <rect class="cls-23" x="-.45" y="11.36" width="12.56" height="27.71" transform="translate(-3.01 .89) rotate(-6.96)"/>
        </g>
        <g class="cls-38">
          <rect class="cls-16" x="1.47" y="10.01" width="21.68" height="28"/>
        </g>
        <g class="cls-47">
          <rect class="cls-6" x="1.47" y="10.01" width="21.68" height="28"/>
        </g>
        <g class="cls-3">
          <polygon class="cls-25" points="17.44 23.87 19.37 23.98 19.27 26.6 17.34 26.5 17.44 23.87"/>
        </g>
        <g class="cls-36">
          <polygon class="cls-21" points="18.67 19.45 19.77 19.51 19.71 20.97 18.62 20.92 18.67 19.45"/>
        </g>
        <g class="cls-30">
          <polygon class="cls-27" points="13.85 17.61 15.76 17.71 15.66 20.3 13.75 20.2 13.85 17.61"/>
        </g>
        <g class="cls-43">
          <polygon class="cls-8" points="19.68 15.34 21.65 15.45 21.54 18.13 19.57 18.02 19.68 15.34"/>
        </g>
        <g class="cls-31">
          <polygon class="cls-7" points="16.61 12.61 18.56 12.71 18.46 15.36 16.51 15.26 16.61 12.61"/>
        </g>
        <g>
          <polygon class="cls-22" points="18.86 24.64 18.3 24.84 18.43 25.59 17.97 25.12 17.62 25.73 17.61 24.96 17.04 24.96 17.48 24.46 17.12 23.85 17.68 24.01 17.81 23.25 18.06 23.94 18.58 23.6 18.34 24.31 18.86 24.64"/>
          <polygon class="cls-22" points="18.46 20.26 18.49 19.76 18.19 19.47 18.55 19.36 18.67 18.88 18.86 19.31 19.23 19.3 18.98 19.68 19.1 20.16 18.76 19.96 18.46 20.26"/>
          <polygon class="cls-22" points="15.18 18.53 14.63 18.71 14.75 19.46 14.3 18.98 13.94 19.58 13.94 18.81 13.38 18.8 13.82 18.32 13.47 17.71 14.02 17.88 14.16 17.13 14.41 17.82 14.92 17.49 14.68 18.19 15.18 18.53"/>
          <polygon class="cls-22" points="21.02 16.32 20.45 16.51 20.58 17.29 20.12 16.81 19.75 17.43 19.74 16.64 19.16 16.64 19.61 16.13 19.24 15.51 19.81 15.67 19.94 14.9 20.21 15.6 20.73 15.25 20.49 15.98 21.02 16.32"/>
          <polygon class="cls-22" points="17.91 13.66 17.34 13.84 17.46 14.61 17.01 14.12 16.64 14.73 16.64 13.95 16.06 13.94 16.51 13.44 16.16 12.82 16.73 12.99 16.86 12.23 17.12 12.94 17.64 12.6 17.39 13.31 17.91 13.66"/>
        </g>
        <g class="cls-4">
          <polygon class="cls-19" points="2.89 12.33 14.38 12.61 14.78 36.7 3.29 36.42 2.89 12.33"/>
        </g>
        <g class="cls-45">
          <polygon class="cls-24" points="2.51 12.21 13.67 12.49 14.06 36.58 2.9 36.3 2.51 12.21"/>
        </g>
        <g class="cls-42">
          <rect class="cls-5" x="2.66" y="12.15" width="10.82" height="23.42"/>
        </g>
        <g class="cls-40">
          <polygon class="cls-13" points="3.39 13.04 7.35 12.53 7.39 17.04 3.44 17.55 3.39 13.04"/>
        </g>
        <g class="cls-2">
          <polygon class="cls-20" points="3.5 13.97 3.91 13.91 3.92 14.7 3.51 14.76 3.5 13.97"/>
        </g>
        <g class="cls-33">
          <polygon class="cls-10" points="3.3 14.59 3.75 14.53 3.76 15.42 3.31 15.47 3.3 14.59"/>
        </g>
        <g class="cls-37">
          <polygon class="cls-11" points="3.14 15.24 3.58 15.18 3.59 16.04 3.15 16.1 3.14 15.24"/>
        </g>
        <g class="cls-48">
          <polygon class="cls-14" points="1.96 13.45 3.63 13.24 3.66 16.19 1.99 16.41 1.96 13.45"/>
        </g>
        <path class="cls-12" d="M4.44,14.45c1.11-.3,1.03.25,1.03.25.19-.74-.26-.82-1.03-.25M5.81,12.96c-2.44,1.47-3.55.47-3.7-.39,0-.02,0-.03-.02-.04-.43,1.27-.72,2.62-.76,2.88-.01.09,0,.16.01.21,0,0,0,0,0,0,0,0,0,.01,0,.02.2.49,1.27.11,2.34-.49,1.21-.68,1.16-.09,1.01.57-.08.39-.23.95-.31,1.25l1.55-.11c.06-.12.4-1.04.61-1.91.22-.93.59-2.81-.76-2M5.45,15.33c-.08.21-.19.53-.3.82.04-.17.09-.38.15-.64.23-.98,0-1.01-1.62-.61-.49.12-.88.17-1.2.16.25-.03.5-.11.72-.21,1.41-.66,1.58-1.06,2.13-1.06.54,0,.43.69.13,1.54M6.3,14.51s0,.03-.01.05c.01-.31-.05-.58-.2-.74-.43-.46-.78-.16-2.09.41-.53.23-.99.16-1.38-.02.49.05,1.12-.04,1.87-.46,1.69-.94,2.05.05,1.81.78"/>
      </g>
      <path class="cls-44" d="M24.88,17.17c-.31,1.14-1.22,4.57-2.06,7.71-.87,3.13-2.21,5.78-2.24,5.76-.02-.03-1.25,2.73-3.6,5-2.3,2.33-5.56,3.88-6.69,4.16-2.08.6-3.33.8-5.14.67,1.81.21,3.09.05,5.18-.55,1.15-.28,4.43-1.85,6.74-4.19,2.37-2.29,3.6-5.06,3.62-5.03.04.02,1.38-2.64,2.25-5.78.84-3.14,1.76-6.57,2.06-7.71.56-2.11.86-3.31,1.3-5.08-.51,1.75-.85,2.94-1.41,5.04"/>
      <path class="cls-49" d="M25.73,17.22c-.31,1.17-1.25,4.68-2.11,7.91-.84,3.23-2.26,5.92-2.29,5.9,0-.01-1.36,2.74-3.75,5.09-2.33,2.43-5.75,3.88-6.9,4.17-2.13.63-3.42.78-5.28.63,1.87.2,3.15.11,5.32-.47,1.17-.28,4.62-1.76,6.97-4.2,2.41-2.36,3.78-5.14,3.78-5.13.03.02,1.46-2.69,2.3-5.94.86-3.22,1.8-6.74,2.11-7.91.58-2.16.88-3.39,1.31-5.21-.53,1.79-.89,3.01-1.47,5.17"/>
      <g>
        <path class="cls-22" d="M37.72,21.21c-.62.34-1.09.51-1.76.61-.36.06-.82.09-1.24.09-3.19,0-5.55-2.25-5.55-5.28s2.33-5.32,5.5-5.32c1.06,0,2.1.22,3.05.65v1.91c-1.14-.59-2.16-.89-3-.89-2.1,0-3.87,1.66-3.87,3.64s1.82,3.62,3.96,3.62c.85,0,1.77-.31,2.91-.99v1.96Z"/>
        <polygon class="cls-22" points="40.64 11.63 40.64 15.35 45.01 15.35 45.01 11.63 46.56 11.63 46.56 21.56 45.01 21.56 45.01 16.92 40.64 16.92 40.64 21.56 39.07 21.56 39.07 11.63 40.64 11.63"/>
        <path class="cls-22" d="M49.94,11.63v5.83c0,1.04.2,1.71.65,2.18.42.44,1.03.68,1.62.68,1.4,0,2.36-.96,2.36-2.36v-6.33h1.55v6.43c0,2.35-1.48,3.82-3.81,3.82-1.32,0-2.14-.29-2.86-1.03-.78-.79-1.07-1.71-1.07-3.34v-5.89h1.55Z"/>
        <path class="cls-22" d="M60.35,11.63c2.13,0,3.54,1.13,3.54,2.86,0,.93-.3,1.63-.87,2.13-.44.36-.73.51-1.59.78l2.83,4.17h-1.97l-2.67-3.98h-.03v3.98h-1.57v-9.93h2.33ZM59.59,13.08v3.08c1.73-.02,2.64-.56,2.64-1.55,0-.92-.95-1.54-2.36-1.54h-.28v.02Z"/>
        <path class="cls-22" d="M73.52,21.21c-.62.34-1.09.51-1.76.61-.36.06-.82.09-1.24.09-3.19,0-5.55-2.25-5.55-5.28s2.33-5.32,5.5-5.32c1.06,0,2.1.22,3.05.65v1.91c-1.13-.59-2.16-.89-3-.89-2.1,0-3.87,1.66-3.87,3.64s1.82,3.62,3.96,3.62c.86,0,1.77-.31,2.91-.99v1.96Z"/>
        <polygon class="cls-22" points="76.44 11.63 76.44 15.35 80.81 15.35 80.81 11.63 82.36 11.63 82.36 21.56 80.81 21.56 80.81 16.92 76.44 16.92 76.44 21.56 74.87 21.56 74.87 11.63 76.44 11.63"/>
        <rect class="cls-22" x="84.21" y="11.63" width="1.55" height="9.93"/>
        <polygon class="cls-22" points="89.37 11.63 89.37 19.99 92.53 19.99 92.53 21.56 87.8 21.56 87.8 11.63 89.37 11.63"/>
        <polygon class="cls-22" points="95.36 11.63 95.36 19.99 98.51 19.99 98.51 21.56 93.79 21.56 93.79 11.63 95.36 11.63"/>
        <polygon class="cls-22" points="34.58 24.16 34.58 25.01 30.88 25.01 30.88 28.07 34.58 28.07 34.58 28.92 30.88 28.92 30.88 32.83 34.61 32.83 34.61 33.67 30.04 33.67 30.04 24.16 34.58 24.16"/>
        <path class="cls-22" d="M37.29,24.16c.78,0,1.82.12,2.41.27.56.15,1.09.41,1.54.76,1.07.82,1.63,2.14,1.63,3.77,0,1.48-.41,2.58-1.3,3.47-.41.39-.81.65-1.3.85-.56.21-1.64.39-2.43.39h-1.87v-9.51h1.31ZM36.82,32.83h.78c2.86,0,4.33-1.3,4.33-3.85s-1.51-3.97-4.43-3.97h-.68v7.82Z"/>
        <path class="cls-22" d="M45.1,24.16v6.14c0,.95.18,1.56.63,2.01.5.53,1.12.79,1.81.79,1.46,0,2.4-.99,2.4-2.56v-6.38h.84v6.44c0,1.88-1.39,3.35-3.17,3.35-1.94,0-3.36-1.45-3.36-3.44v-6.35h.84Z"/>
        <path class="cls-22" d="M60.54,26.33c-.57-.62-.84-.85-1.45-1.12-.54-.26-1.13-.38-1.72-.38-2.34,0-4.18,1.79-4.18,4.06s1.85,4.12,4.21,4.12c.56,0,1.04-.11,1.52-.3.6-.24.92-.48,1.63-1.17v1.26c-.68.5-.98.68-1.55.88-.51.18-1.04.27-1.6.27-1.37,0-2.77-.59-3.74-1.58-.92-.94-1.37-2.09-1.37-3.51,0-2.77,2.25-4.97,5.09-4.97.54,0,1.1.11,1.67.32.62.21.89.36,1.48.82v1.3Z"/>
        <path class="cls-22" d="M69.33,33.67h-.87l-1.25-3.03h-3.92l-1.28,3.03h-.89l4.11-9.8,4.1,9.8ZM63.62,29.8h3.23l-1.61-3.85-1.61,3.85Z"/>
        <polygon class="cls-22" points="74.68 24.16 74.68 25.01 72.19 25.01 72.19 33.67 71.35 33.67 71.35 25.01 68.86 25.01 68.86 24.16 74.68 24.16"/>
        <rect class="cls-22" x="75.92" y="24.16" width=".84" height="9.51"/>
        <path class="cls-22" d="M88,28.9c0,2.91-2.05,5.04-4.82,5.04s-4.91-2.12-4.91-5.06,2.07-5,4.81-5,4.93,2.14,4.93,5.01M79.19,28.87c0,2.39,1.64,4.14,3.95,4.14s3.95-1.73,3.95-4.08-1.64-4.11-3.99-4.11-3.9,1.71-3.9,4.04"/>
        <polygon class="cls-22" points="97.47 31.98 97.47 24.16 98.32 24.16 98.32 34.01 90.52 25.9 90.52 33.67 89.68 33.67 89.68 23.83 97.47 31.98"/>
        <path class="cls-22" d="M30.32,37.14h.41c.63,0,1.22.16,1.22.92,0,.24-.13.53-.36.63h0c.4.08.67.47.67.86,0,.67-.57.94-1.16.94h-.78v-3.35ZM30.74,38.62h.11c.4,0,.72-.08.72-.56s-.32-.55-.71-.55h-.12v1.11ZM30.74,40.11h.32c.39,0,.79-.12.79-.59s-.48-.57-.85-.57h-.26v1.16Z"/>
        <path class="cls-22" d="M35.37,40.48h-.51l-.99-1.42h-.17v1.42h-.42v-3.35h.51c.3,0,.62,0,.88.16.28.16.44.48.44.8,0,.48-.32.88-.8.94l1.06,1.46ZM33.71,38.72h.13c.43,0,.89-.08.89-.61s-.5-.6-.91-.6h-.11v1.21Z"/>
        <path class="cls-22" d="M36.73,39.64l-.38.84h-.45l1.6-3.49,1.6,3.49h-.45l-.38-.84h-1.54ZM37.5,37.91l-.59,1.35h1.19l-.59-1.35Z"/>
        <polygon class="cls-22" points="40.51 39.61 41.51 37.14 41.96 37.14 40.51 40.66 39.06 37.14 39.51 37.14 40.51 39.61"/>
        <polygon class="cls-22" points="42.96 37.14 44.76 37.14 44.76 37.52 43.38 37.52 43.38 38.45 44.72 38.45 44.72 38.84 43.38 38.84 43.38 40.1 44.76 40.1 44.76 40.48 42.96 40.48 42.96 37.14"/>
        <polygon class="cls-22" points="49.95 38.49 49.95 37.14 50.37 37.14 50.37 40.48 49.95 40.48 49.95 38.88 48.35 38.88 48.35 40.48 47.94 40.48 47.94 37.14 48.35 37.14 48.35 38.49 49.95 38.49"/>
        <polygon class="cls-22" points="51.53 37.14 53.33 37.14 53.33 37.52 51.95 37.52 51.95 38.45 53.29 38.45 53.29 38.84 51.95 38.84 51.95 40.1 53.33 40.1 53.33 40.48 51.53 40.48 51.53 37.14"/>
        <path class="cls-22" d="M54.88,39.64l-.38.84h-.45l1.6-3.49,1.6,3.49h-.45l-.38-.84h-1.54ZM55.64,37.91l-.59,1.35h1.19l-.59-1.35Z"/>
        <path class="cls-22" d="M60.01,40.48h-.51l-.99-1.42h-.17v1.42h-.42v-3.35h.51c.3,0,.62,0,.88.16.28.16.44.48.44.8,0,.48-.32.88-.8.94l1.06,1.46ZM58.35,38.72h.13c.43,0,.89-.08.89-.61s-.5-.6-.91-.6h-.11v1.21Z"/>
        <polygon class="cls-22" points="61.86 40.48 61.45 40.48 61.45 37.52 60.65 37.52 60.65 37.14 62.66 37.14 62.66 37.52 61.86 37.52 61.86 40.48"/>
        <path class="cls-22" d="M65.03,37.77c-.12-.21-.28-.32-.54-.32-.27,0-.56.18-.56.47,0,.26.26.4.47.48l.24.09c.47.19.83.45.83,1.01,0,.61-.47,1.04-1.07,1.04-.54,0-.96-.4-1.03-.94l.42-.09c0,.37.29.63.65.63s.62-.3.62-.65-.29-.51-.58-.63l-.23-.1c-.38-.16-.73-.38-.73-.85,0-.54.48-.87.99-.87.37,0,.68.18.86.51l-.33.2Z"/>
        <path class="cls-22" d="M69.11,39.64l-.38.84h-.45l1.6-3.49,1.6,3.49h-.45l-.38-.84h-1.54ZM69.87,37.91l-.59,1.35h1.19l-.59-1.35Z"/>
        <polygon class="cls-22" points="72.42 36.98 74.93 39.61 74.93 37.14 75.35 37.14 75.35 40.62 72.84 37.99 72.84 40.48 72.42 40.48 72.42 36.98"/>
        <path class="cls-22" d="M76.62,37.14h.69c1.03,0,1.88.54,1.88,1.66s-.83,1.69-1.89,1.69h-.68v-3.35ZM77.04,40.1h.15c.85,0,1.59-.32,1.59-1.29s-.74-1.29-1.59-1.29h-.15v2.58Z"/>
        <polygon class="cls-22" points="82.88 38.27 82.87 38.27 82.48 40.48 82.05 40.48 82.73 36.99 83.88 39.63 85.03 36.99 85.71 40.48 85.28 40.48 84.89 38.27 84.88 38.27 83.88 40.55 82.88 38.27"/>
        <rect class="cls-22" x="86.78" y="37.14" width=".42" height="3.35"/>
        <polygon class="cls-22" points="88.5 36.98 91.01 39.61 91.01 37.14 91.43 37.14 91.43 40.62 88.91 37.99 88.91 40.48 88.5 40.48 88.5 36.98"/>
        <path class="cls-22" d="M92.69,37.14h.69c1.03,0,1.88.54,1.88,1.66s-.83,1.69-1.89,1.69h-.68v-3.35ZM93.11,40.1h.15c.85,0,1.59-.32,1.59-1.29s-.74-1.29-1.59-1.29h-.15v2.58Z"/>
        <path class="cls-22" d="M97.88,37.77c-.12-.21-.28-.32-.54-.32-.27,0-.56.18-.56.47,0,.26.26.4.47.48l.24.09c.47.19.83.45.83,1.01,0,.61-.47,1.04-1.07,1.04-.54,0-.96-.4-1.03-.94l.42-.09c0,.37.29.63.65.63s.62-.3.62-.65-.29-.51-.58-.63l-.23-.1c-.38-.16-.73-.38-.73-.85,0-.54.48-.87.99-.87.37,0,.68.18.86.51l-.33.2Z"/>
      </g>
    </g>
  </g>
</svg>